<svg width="120" height="35" viewBox="0 0 120 35" fill="none" xmlns="http://www.w3.org/2000/svg">
<path fill-rule="evenodd" clip-rule="evenodd" d="M119.602 19.8119C119.706 19.9764 119.769 20.1634 119.787 20.3573V20.3431C119.891 21.2632 119.322 22.5439 118.994 23.1889C118.474 24.1958 117.74 25.0777 116.846 25.7739C115.016 27.1766 112.772 27.9294 110.466 27.913C109.168 27.9243 107.879 27.6844 106.672 27.2063C105.538 26.7592 104.504 26.0937 103.627 25.2474C102.765 24.4074 102.081 23.4025 101.616 22.2925C101.125 21.1214 100.878 19.8626 100.89 18.5929C100.871 16.0003 101.896 13.5092 103.736 11.6822C104.639 10.7935 105.703 10.0852 106.871 9.59525C111.045 7.82608 116.447 9.1494 118.601 13.347C118.914 13.961 119.155 14.6087 119.322 15.2775C119.394 15.5928 119.318 15.9241 119.116 16.1765C118.913 16.4289 118.607 16.5748 118.283 16.5723L115.589 16.6292H107.616C107.638 21.151 109.657 23.4119 113.673 23.4119C114.815 23.4831 115.932 23.0497 116.727 22.2261C117.202 21.7117 117.577 21.1133 117.832 20.4617C117.859 20.4021 117.884 20.3415 117.909 20.2811C118.083 19.8651 118.255 19.4548 118.781 19.4134C119.106 19.3908 119.418 19.5425 119.602 19.8119ZM112.411 10.1692C112.059 9.58607 111.417 9.24078 110.737 9.26798H110.722C109.704 9.26798 108.936 9.86086 108.417 11.0466C107.936 12.3106 107.682 13.6499 107.668 15.0024H113.227C113.227 14.9211 113.229 14.8459 113.23 14.7729C113.233 14.6328 113.236 14.5006 113.227 14.3478C113.224 14.3023 113.221 14.2571 113.219 14.2125C113.207 14.0295 113.197 13.8562 113.189 13.7075C113.185 13.6356 113.177 13.5573 113.167 13.474C113.153 13.3428 113.137 13.199 113.137 13.0482C113.126 12.0447 112.877 11.0581 112.411 10.1692Z" fill="#811D65"/>
<path d="M13.7834 22.0933C13.3523 22.0959 13.0034 22.4447 13.0008 22.8759C12.9765 23.3203 12.6729 23.7004 12.2449 23.8224C11.8168 23.9444 11.3585 23.7814 11.1036 23.4166C10.9337 22.7714 10.8539 22.1058 10.8664 21.4387V10.9755H13.8024C14.2634 10.9755 14.6372 10.6018 14.6372 10.1407C14.6372 9.67968 14.2634 9.30593 13.8024 9.30593H10.8474V2.52807L10.8047 2.58024L10.8379 2.52807C10.8379 2.21977 10.5249 1.84506 10.1881 1.89724C9.85138 1.94941 9.51462 2.50909 9.3249 2.74625C7.04822 5.53044 4.04111 8.16759 0.758893 9.66641C0.436364 9.81344 0 9.96048 0 10.3684C0 10.7063 0.273938 10.9802 0.611858 10.9802H4.46324V21.8466C4.46324 22.321 4.46324 22.7241 4.51067 23.113C4.51067 23.2506 4.51067 23.3834 4.54387 23.521C4.58741 24.0037 4.68119 24.4806 4.82372 24.9439C5.05685 25.6601 5.49564 26.2919 6.08538 26.7605C6.86219 27.3762 7.79832 27.7579 8.78419 27.8609C9.03212 27.9 9.28261 27.9206 9.5336 27.9225H9.65692C12.3861 27.8556 14.5643 25.6249 14.566 22.8949C14.5634 22.4637 14.2145 22.1148 13.7834 22.1123" fill="#811D65"/>
<path d="M35.2648 26.2577C35.1343 26.0659 34.9883 25.8851 34.8284 25.717C34.098 24.8585 34.0316 23.649 34.0601 22.5771C34.0601 21.6522 34.0838 20.732 34.0838 19.8071V13.8783C34.1054 13.0819 34.0321 12.2858 33.8656 11.5067C33.4771 9.79486 31.8749 8.63998 30.128 8.81265C29.3565 8.81239 28.5903 8.94062 27.8608 9.1921C27.0233 9.49763 26.2268 9.90547 25.4893 10.4063C25.2711 10.5534 25.0767 10.6814 24.9106 10.8047L24.3652 11.2032C24.1723 11.3486 23.9541 11.5178 23.7106 11.7107C23.4672 11.9036 23.1747 12.1423 22.8332 12.4269V1.36601C22.834 1.08197 22.6994 0.81453 22.4708 0.645906C22.2423 0.477282 21.947 0.427647 21.6759 0.512258L21.5763 0.540716L20.5328 0.867989C20.1976 0.975499 19.8435 1.07827 19.4703 1.17629C19.0972 1.27431 18.6593 1.39447 18.1565 1.53676L17.0182 1.82609C15.2537 2.0585 14.8174 3.8419 15.894 5.72965C16.4537 6.70672 16.4632 7.90198 16.4632 9.00712V21.4957C16.4632 22.2451 16.4632 22.9945 16.4632 23.7486V23.9051C16.4577 24.3622 16.3422 24.8112 16.1265 25.2142C15.8003 25.6069 15.5023 26.0222 15.2348 26.4569C15.0902 26.7402 15.1774 27.0867 15.4387 27.268C15.7944 27.5431 16.3873 27.4245 16.8189 27.4245H18.0806H21.4814C22.1545 27.497 22.8335 27.497 23.5067 27.4245C23.7785 27.3819 24.0095 27.2028 24.1185 26.9502C24.1736 26.722 24.1306 26.4812 24 26.2862C23.8693 26.0945 23.7233 25.9137 23.5636 25.7455C23.1294 25.2232 22.8837 24.5699 22.8664 23.8909V23.483V13.3897C22.8639 13.1234 22.9826 12.8704 23.1889 12.702C23.5548 12.3985 23.9562 12.1405 24.3842 11.9336C24.7902 11.7387 25.2334 11.6335 25.6838 11.6253C25.9901 11.6355 26.29 11.715 26.5612 11.8577C26.8367 11.9898 27.0748 12.1887 27.2537 12.4364C27.4473 12.6991 27.5787 13.0024 27.6379 13.3233C27.7093 13.81 27.7394 14.3019 27.728 14.7937V21.4957C27.728 22.2451 27.728 22.9945 27.728 23.7439C27.728 23.7961 27.728 23.8482 27.728 23.9004C27.7255 24.3567 27.6132 24.8057 27.4008 25.2095C27.0747 25.6006 26.7767 26.0142 26.5091 26.4474C26.3645 26.7307 26.4517 27.0773 26.713 27.2585C27.0687 27.5336 27.6616 27.415 28.0933 27.415H29.3549H32.7272C33.4004 27.4878 34.0794 27.4878 34.7525 27.415C35.0244 27.3724 35.2554 27.1934 35.3644 26.9407C35.4194 26.7125 35.3764 26.4717 35.2458 26.2767" fill="#811D65"/>
<path d="M70.1027 18.0664C69.2332 17.1937 67.8308 16.4427 65.8956 15.8134L63.4292 15.0166C61.1304 14.2672 59.981 13.1605 59.981 11.6964C59.981 10.6482 60.9059 9.26798 62.1012 9.71857C62.2611 9.78243 62.4112 9.86867 62.547 9.9747C62.9983 10.3421 63.3806 10.787 63.6759 11.2885C63.8213 11.5162 63.9557 11.7518 64.079 11.9953C64.4774 12.7826 64.6292 13.7692 65.3786 14.3241C66.1798 14.9166 67.2605 14.963 68.1095 14.4415C68.9586 13.92 69.4058 12.935 69.2395 11.9526C69.1388 11.4314 68.8766 10.9551 68.4901 10.5913C67.4783 9.73824 66.2565 9.17159 64.9517 8.95019C63.2651 8.59994 61.5165 8.69309 59.8766 9.22055C58.9435 9.51246 58.0663 9.95986 57.2822 10.5439C56.6126 11.0562 56.0569 11.7023 55.6506 12.4411C55.2513 13.1673 55.0455 13.984 55.0529 14.8126C55.0409 16.1165 55.5821 17.3644 56.5423 18.2466C57.5351 19.1953 59.1921 20.0743 61.513 20.8838L63.2917 21.5004C64.2742 21.7726 65.1844 22.2584 65.9573 22.9233C66.4609 23.4502 66.7296 24.1586 66.7019 24.887C66.7319 25.5924 66.4693 26.2788 65.9763 26.7842C65.4551 27.2788 64.7476 27.5273 64.0316 27.4672C63.4851 27.4397 62.9581 27.2553 62.5138 26.936C61.6197 26.2024 60.9777 25.2072 60.6782 24.0901C60.3936 23.1794 60.4174 22.098 59.7296 21.3676C58.9814 20.5904 57.8364 20.3451 56.8355 20.7475C55.8346 21.15 55.1782 22.1196 55.1763 23.1984C55.188 23.7727 55.3806 24.3287 55.7264 24.7873C56.651 25.8816 57.8513 26.7086 59.2031 27.1826C60.5304 27.6847 61.939 27.9372 63.3581 27.9273C64.4532 27.9427 65.5437 27.7825 66.5881 27.453C67.5165 27.1597 68.3831 26.6983 69.1446 26.0917C69.8465 25.524 70.4162 24.8102 70.8142 24C71.2159 23.1729 71.419 22.2633 71.4071 21.3439C71.441 20.1214 70.9691 18.9391 70.1027 18.0759" fill="#811D65"/>
<path fill-rule="evenodd" clip-rule="evenodd" d="M89.3074 11.2458C89.93 12.0621 90.3993 12.9845 90.6924 13.9684L90.7303 13.9589C91.0637 15.0952 91.2236 16.2753 91.2046 17.4593C91.2172 18.86 90.9893 20.2525 90.5311 21.5763C90.119 22.7822 89.4977 23.9061 88.6955 24.8964C87.9499 25.8159 87.0211 26.5702 85.9683 27.1115C84.9209 27.6436 83.7612 27.9169 82.5865 27.9083C81.9607 27.9216 81.3376 27.8236 80.7461 27.619C80.1239 27.3674 79.5421 27.0253 79.0197 26.604V29.9241V30.9249V31.0245C79.036 31.7051 79.2816 32.3603 79.7169 32.8838C79.8768 33.0519 80.0227 33.2327 80.1533 33.4245C80.2844 33.6193 80.3275 33.8604 80.2718 34.0885C80.1628 34.3412 79.9318 34.5202 79.66 34.5628C78.9964 34.6371 78.3267 34.6371 77.6631 34.5628H72.9627C72.8663 34.5628 72.7618 34.5688 72.6536 34.5749C72.278 34.5962 71.8587 34.6199 71.5825 34.4063C71.3212 34.2251 71.234 33.8786 71.3786 33.5953C71.6272 33.1821 71.9096 32.7903 72.2228 32.4237C72.479 31.9494 72.6065 31.4163 72.5928 30.8775V29.1368V28.634C72.5975 28.634 72.5691 17.7913 72.5691 17.7913C72.5691 16.6862 72.5596 15.4909 71.9999 14.5138C70.9232 12.6308 71.3596 10.8427 73.124 10.6103L74.2623 10.3209C74.7651 10.1787 75.2031 10.0585 75.5762 9.96047C75.9493 9.86245 76.3035 9.75968 76.6386 9.65217L77.6821 9.3249L77.7865 9.2917C78.0528 9.2105 78.3417 9.25765 78.5684 9.4193C78.7951 9.58095 78.9338 9.83875 78.9438 10.117V11.1937H78.9675C79.7988 10.4527 80.7375 9.84179 81.7517 9.38182C82.5975 9.02169 83.5074 8.83616 84.4268 8.83636C85.3829 8.82668 86.327 9.04969 87.1778 9.48616C88.008 9.90962 88.735 10.5103 89.3074 11.2458ZM80.7793 26.8032C81.924 26.8032 82.8125 26.0901 83.445 24.664L83.4497 24.6877C84.0821 23.2617 84.3983 21.2664 84.3983 18.702C84.3952 16.2609 84.1027 14.3447 83.5208 12.9534C82.939 11.5621 82.1359 10.8664 81.1114 10.8664C80.8098 10.8679 80.5116 10.9292 80.2339 11.0466C79.8025 11.2434 79.387 11.4733 78.9912 11.7344V26.0063C79.4531 26.5054 80.0994 26.7934 80.7793 26.8032Z" fill="#811D65"/>
<path fill-rule="evenodd" clip-rule="evenodd" d="M54.1991 19.8071C54.3031 19.9717 54.3665 20.1587 54.3841 20.3526L54.3888 20.3478C54.4932 21.268 53.924 22.5486 53.5967 23.1937C53.0725 24.1998 52.3362 25.0801 51.4386 25.7739C49.6093 27.1766 47.3644 27.9294 45.0592 27.913C43.7606 27.9245 42.4721 27.6845 41.2647 27.2063C40.1361 26.7577 39.1064 26.0922 38.2339 25.2474C37.3705 24.4077 36.6849 23.4028 36.2181 22.2925C35.7252 21.1202 35.4767 19.8597 35.4877 18.5881C35.4682 15.9956 36.494 13.5045 38.3335 11.6775C39.2363 10.7888 40.3004 10.0805 41.4687 9.59051C45.6426 7.82134 51.045 9.14466 53.1983 13.3423C53.5109 13.9564 53.7528 14.604 53.9193 15.2727C53.9918 15.5881 53.916 15.9193 53.7135 16.1718C53.5111 16.4242 53.2041 16.57 52.8805 16.5676L50.1865 16.6245H42.2133C42.2355 21.1462 44.2545 23.4071 48.2703 23.4071C49.413 23.4783 50.5295 23.0449 51.3248 22.2213C51.7996 21.7069 52.1744 21.1086 52.4299 20.4569C52.4564 20.3973 52.4818 20.3368 52.507 20.2763C52.681 19.8603 52.8526 19.4501 53.3786 19.4087C53.7035 19.3861 54.016 19.5378 54.1991 19.8071ZM46.9896 10.1644C46.6371 9.58467 45.9981 9.24154 45.3201 9.26798V9.26323C44.3019 9.26323 43.5335 9.85612 43.0149 11.0419C42.5335 12.3059 42.2798 13.6451 42.2655 14.9976H47.8054V14.3431C47.7928 14.1122 47.7801 13.8988 47.7675 13.7028C47.7548 13.5067 47.7375 13.2869 47.7153 13.0435C47.7041 12.04 47.4554 11.0533 46.9896 10.1644Z" fill="#811D65"/>
<path d="M100.487 26.2672C100.356 26.0754 100.211 25.8946 100.051 25.7265C99.617 25.2039 99.3715 24.5508 99.3534 23.8719V23.464V9.96048C99.3536 9.67378 99.2166 9.40429 98.9849 9.23543C98.7532 9.06658 98.4547 9.01874 98.1819 9.10672L98.0775 9.13992L97.034 9.4672C96.6989 9.57471 96.3447 9.67747 95.9716 9.7755C95.5985 9.87352 95.1605 9.99368 94.6578 10.136L93.5194 10.4253C91.755 10.6577 91.3186 12.4459 92.3953 14.3289C92.955 15.3059 92.9645 16.5012 92.9645 17.6063V21.5099C92.9645 22.2593 92.9645 23.0087 92.9645 23.7581C92.9645 23.8103 92.9645 23.8625 92.9645 23.9146C92.9619 24.3709 92.8497 24.8199 92.6372 25.2237C92.3109 25.6147 92.0129 26.0284 91.7455 26.4617C91.601 26.745 91.6881 27.0915 91.9494 27.2727C92.3052 27.5478 92.8981 27.4293 93.3297 27.4293H94.5913H97.9921C98.6653 27.5017 99.3443 27.5017 100.017 27.4293C100.289 27.3866 100.52 27.2076 100.629 26.9549C100.684 26.7268 100.641 26.4859 100.511 26.2909" fill="#811D65"/>
<path d="M99.6047 3.81817C99.6047 5.66323 97.883 7.13833 95.7628 7.13833C93.6426 7.13833 91.9209 5.64426 91.9209 3.81817C91.9209 1.99209 93.6426 0.498016 95.7628 0.498016C97.883 0.498016 99.6047 1.99209 99.6047 3.81817Z" fill="#811D65"/>
</svg>
