<svg width="48" height="49" viewBox="0 0 48 49" fill="none" xmlns="http://www.w3.org/2000/svg">
<path id="Google" fill-rule="evenodd" clip-rule="evenodd" d="M24.3374 19.6485V29.3515C24.3374 29.3515 33.6878 29.3389 37.495 29.3389C35.4333 35.6291 32.2275 39.0545 24.3374 39.0545C16.3526 39.0545 10.1205 32.5382 10.1205 24.5C10.1205 16.4618 16.3526 9.94554 24.3374 9.94554C28.5591 9.94554 31.2856 11.4393 33.7866 13.5213C35.7885 11.506 35.6213 11.2188 40.7145 6.37679C36.3909 2.41507 30.6444 0 24.3374 0C10.8962 0 0 10.969 0 24.5C0 38.0308 10.8962 49 24.3374 49C44.4283 49 49.3389 31.3891 47.7109 19.6485C42.9548 19.6485 24.3374 19.6485 24.3374 19.6485Z" fill="white"/>
</svg>
