<svg width="19" height="18" viewBox="0 0 19 18" fill="none" xmlns="http://www.w3.org/2000/svg">
<path fill-rule="evenodd" clip-rule="evenodd" d="M14.3407 0.165218C12.3622 0.165218 10.7802 1.6687 9.79718 2.66413C8.79348 1.67696 7.18261 0.165218 5.20827 0.165218C2.31696 0.165218 0.30957 2.20152 0.30957 5.12174C0.30957 11.462 8.61587 16.687 8.98348 16.8976C9.3843 17.147 9.89202 17.147 10.2928 16.8976C10.6439 16.6787 18.913 11.4289 18.913 5.12587C18.8841 2.06522 17.1452 0.165218 14.3407 0.165218ZM9.59066 15.8609C9.59066 15.8609 1.51979 10.863 1.51979 5.12174C1.51979 2.9037 2.96131 1.40435 5.17935 1.40435C7.3974 1.40435 9.36761 4.29565 9.78066 4.29565C10.1937 4.29565 12.1061 1.40435 14.3241 1.40435C16.5422 1.40435 17.6285 2.9037 17.6285 5.12174C17.645 10.8093 9.59066 15.8609 9.59066 15.8609Z" fill="#AC0965"/>
</svg>
