<svg width="60" height="60" viewBox="0 0 60 60" fill="none" xmlns="http://www.w3.org/2000/svg">
<g id="Instagram">
<path id="Combined Shape" fill-rule="evenodd" clip-rule="evenodd" d="M30 0C13.4315 0 0 13.4147 0 29.9625C0 46.5104 13.4315 59.9251 30 59.9251C46.5685 59.9251 60 46.5104 60 29.9625C60 13.4147 46.5685 0 30 0ZM23.4041 14.0791C25.1108 14.0015 25.6561 13.9825 30.0015 13.9825H29.9965C34.3432 13.9825 34.8866 14.0015 36.5932 14.0791C38.2966 14.157 39.4599 14.4263 40.4799 14.8215C41.5333 15.2293 42.4233 15.7753 43.3133 16.6642C44.2033 17.5524 44.75 18.444 45.16 19.495C45.5533 20.5111 45.8233 21.6723 45.9033 23.3735C45.98 25.0781 46 25.6228 46 29.9627C46 34.3027 45.98 34.846 45.9033 36.5505C45.8233 38.2511 45.5533 39.4127 45.16 40.4291C44.75 41.4798 44.2033 42.3713 43.3133 43.2596C42.4243 44.1485 41.533 44.6958 40.4809 45.1039C39.4629 45.4991 38.2989 45.7685 36.5956 45.8464C34.8889 45.9239 34.3452 45.9429 29.9995 45.9429C25.6545 45.9429 25.1094 45.9239 23.4028 45.8464C21.6997 45.7685 20.5367 45.4991 19.5187 45.1039C18.467 44.6958 17.5744 44.1485 16.6854 43.2596C15.7957 42.3713 15.249 41.4798 14.84 40.4287C14.4447 39.4127 14.175 38.2514 14.0967 36.5502C14.0193 34.8457 14 34.3027 14 29.9627C14 25.6228 14.02 25.0778 14.0963 23.3732C14.173 21.6727 14.443 20.5111 14.8397 19.4947C15.2497 18.444 15.7964 17.5524 16.6864 16.6642C17.5757 15.7756 18.4684 15.2296 19.5207 14.8215C20.5381 14.4263 21.7007 14.157 23.4041 14.0791Z" fill="white"/>
<path id="Combined Shape_2" fill-rule="evenodd" clip-rule="evenodd" d="M28.5661 16.8623C28.8448 16.8618 29.1446 16.862 29.4682 16.8621L30.0014 16.8623C34.2735 16.8623 34.7798 16.8776 36.4668 16.9542C38.0269 17.0254 38.8735 17.2857 39.4375 17.5045C40.1842 17.7941 40.7166 18.1404 41.2762 18.6997C41.8362 19.259 42.1829 19.7916 42.4736 20.5374C42.6926 21.1 42.9536 21.9456 43.0246 23.5037C43.1012 25.1883 43.1179 25.6943 43.1179 29.959C43.1179 34.2238 43.1012 34.7298 43.0246 36.4144C42.9532 37.9724 42.6926 38.8181 42.4736 39.3807C42.1836 40.1264 41.8362 40.6574 41.2762 41.2164C40.7162 41.7757 40.1846 42.122 39.4375 42.4116C38.8742 42.6313 38.0269 42.891 36.4668 42.9623C34.7802 43.0388 34.2735 43.0555 30.0014 43.0555C25.7291 43.0555 25.2227 43.0388 23.536 42.9623C21.976 42.8903 21.1294 42.63 20.565 42.4113C19.8183 42.1216 19.285 41.7754 18.725 41.2161C18.165 40.6568 17.8183 40.1254 17.5277 39.3794C17.3086 38.8167 17.0476 37.9711 16.9766 36.413C16.9 34.7285 16.8846 34.2224 16.8846 29.955C16.8846 25.6877 16.9 25.1843 16.9766 23.4997C17.048 21.9416 17.3086 21.096 17.5277 20.5327C17.8177 19.787 18.165 19.2543 18.725 18.695C19.285 18.1357 19.8183 17.7895 20.565 17.4991C21.129 17.2794 21.976 17.0197 23.536 16.9482C25.0121 16.8816 25.5841 16.8616 28.5661 16.8583V16.8623ZM38.5422 19.5156C37.4822 19.5156 36.6222 20.3736 36.6222 21.4326C36.6222 22.4913 37.4822 23.3502 38.5422 23.3502C39.6022 23.3502 40.4622 22.4913 40.4622 21.4326C40.4622 20.3739 39.6022 19.515 38.5422 19.515V19.5156ZM21.7847 29.9627C21.7847 25.4308 25.4636 21.7564 30.0011 21.7562C34.5388 21.7562 38.2169 25.4307 38.2169 29.9627C38.2169 34.4947 34.5392 38.1675 30.0014 38.1675C25.4637 38.1675 21.7847 34.4947 21.7847 29.9627Z" fill="white"/>
<path id="Shape" fill-rule="evenodd" clip-rule="evenodd" d="M30.0015 24.636C32.9468 24.636 35.3349 27.0207 35.3349 29.9627C35.3349 32.9044 32.9468 35.2894 30.0015 35.2894C27.0558 35.2894 24.6681 32.9044 24.6681 29.9627C24.6681 27.0207 27.0558 24.636 30.0015 24.636V24.636Z" fill="white"/>
</g>
</svg>
