<svg width="62" height="60" viewBox="0 0 62 60" fill="none" xmlns="http://www.w3.org/2000/svg">
<g id="LinkedIN Copy">
<path id="Combined Shape" fill-rule="evenodd" clip-rule="evenodd" d="M31 0C14.4315 0 1 13.4147 1 29.9625C1 46.5104 14.4315 59.9251 31 59.9251C47.5685 59.9251 61 46.5104 61 29.9625C61 13.4147 47.5685 0 31 0ZM15.402 24.8163H22.2007V45.2179H15.402V24.8163ZM22.6485 18.5052C22.6043 16.5049 21.1721 14.9813 18.8463 14.9813C16.5205 14.9813 15 16.5049 15 18.5052C15 20.4642 16.4756 22.0316 18.758 22.0316H18.8015C21.1721 22.0316 22.6485 20.4642 22.6485 18.5052ZM38.8914 24.3372C43.3652 24.3372 46.7192 27.2537 46.7192 33.5203L46.719 45.2179H39.9206V34.303C39.9206 31.5615 38.9368 29.6907 36.4756 29.6907C34.5974 29.6907 33.4786 30.9519 32.9872 32.17C32.8075 32.6065 32.7633 33.2148 32.7633 33.8245V45.2185H25.9639C25.9639 45.2185 26.0535 26.7312 25.9639 24.8168H32.7633V27.7066C33.6657 26.3174 35.2818 24.3372 38.8914 24.3372Z" fill="white"/>
</g>
</svg>
