<svg width="60" height="60" viewBox="0 0 60 60" fill="none" xmlns="http://www.w3.org/2000/svg">
<g id="Mail">
<path id="Combined Shape" fill-rule="evenodd" clip-rule="evenodd" d="M30 0C13.4315 0 0 13.4147 0 29.9625C0 46.5104 13.4315 59.9251 30 59.9251C46.5685 59.9251 60 46.5104 60 29.9625C60 13.4147 46.5685 0 30 0ZM14.1745 16.3795H45.2655C46.6211 16.3795 47.72 17.4843 47.72 18.847V41.8771C47.72 43.2398 46.6211 44.3446 45.2655 44.3446H14.1745C12.8189 44.3446 11.72 43.2398 11.72 41.8771V18.847C11.72 17.4843 12.8189 16.3795 14.1745 16.3795ZM44.72 40.1551L38.4516 33.8945C37.985 33.4602 37.2579 33.4731 36.8069 33.9235C36.3559 34.3739 36.3431 35.1001 36.7779 35.5661L43.0463 41.8267H16.3937L22.6621 35.5661C23.0969 35.1001 23.0841 34.3739 22.6331 33.9235C22.1821 33.4731 21.455 33.4602 20.9884 33.8945L14.72 40.1551V24.9767L28.9305 35.6765C29.3516 35.9919 29.9305 35.9919 30.3516 35.6765L44.7042 24.9688L44.72 40.1551ZM44.72 21.6301V19.3758H14.72V21.6301L29.6647 32.7843L44.72 21.6301Z" fill="white"/>
</g>
</svg>
