<svg width="19" height="19" viewBox="0 0 19 19" fill="none" xmlns="http://www.w3.org/2000/svg">
<path fill-rule="evenodd" clip-rule="evenodd" d="M9.25391 0.776014C4.28334 0.776014 0.253906 4.80545 0.253906 9.77601C0.253906 14.7466 4.28334 18.776 9.25391 18.776C14.2245 18.776 18.2539 14.7466 18.2539 9.77601C18.2539 4.80545 14.2245 0.776014 9.25391 0.776014ZM9.25391 17.5487C4.96115 17.5487 1.48118 14.0688 1.48118 9.77601C1.48118 5.48326 4.96115 2.00329 9.25391 2.00329C13.5467 2.00329 17.0266 5.48326 17.0266 9.77601C17.0266 14.0688 13.5467 17.5487 9.25391 17.5487Z" fill="#AC0965"/>
<path d="M6.636 9.5H7.68C7.6 9.332 7.516 9.168 7.428 9.008C7.34 8.848 7.256 8.688 7.176 8.528C7.104 8.368 7.044 8.204 6.996 8.036C6.948 7.86 6.924 7.68 6.924 7.496C6.924 7.208 6.984 6.94 7.104 6.692C7.224 6.436 7.384 6.216 7.584 6.032C7.792 5.84 8.032 5.692 8.304 5.588C8.584 5.476 8.88 5.42 9.192 5.42C9.648 5.42 10.076 5.532 10.476 5.756C10.876 5.98 11.204 6.288 11.46 6.68L10.872 7.328C10.68 7.016 10.428 6.768 10.116 6.584C9.804 6.392 9.488 6.296 9.168 6.296C8.984 6.296 8.816 6.332 8.664 6.404C8.512 6.468 8.376 6.556 8.256 6.668C8.144 6.78 8.056 6.916 7.992 7.076C7.928 7.236 7.896 7.404 7.896 7.58C7.896 7.74 7.92 7.9 7.968 8.06C8.024 8.212 8.088 8.368 8.16 8.528C8.24 8.68 8.324 8.836 8.412 8.996C8.508 9.156 8.596 9.324 8.676 9.5H10.824V10.316H8.94C8.956 10.404 8.968 10.492 8.976 10.58C8.984 10.66 8.988 10.744 8.988 10.832C8.988 11.224 8.9 11.596 8.724 11.948C8.548 12.3 8.244 12.708 7.812 13.172C8.108 13.092 8.404 13.052 8.7 13.052C9.02 13.052 9.308 13.088 9.564 13.16C9.828 13.232 10.1 13.268 10.38 13.268C10.54 13.268 10.696 13.252 10.848 13.22C11.008 13.18 11.192 13.124 11.4 13.052L11.664 13.856C11.456 13.96 11.236 14.04 11.004 14.096C10.78 14.152 10.556 14.18 10.332 14.18C10.148 14.18 9.972 14.164 9.804 14.132C9.644 14.1 9.48 14.064 9.312 14.024C9.144 13.992 8.972 13.96 8.796 13.928C8.628 13.896 8.452 13.88 8.268 13.88C8.068 13.88 7.844 13.9 7.596 13.94C7.348 13.98 7.116 14.032 6.9 14.096L6.636 13.328C7.148 12.84 7.512 12.408 7.728 12.032C7.952 11.656 8.064 11.272 8.064 10.88C8.064 10.688 8.04 10.5 7.992 10.316H6.636V9.5Z" fill="#AC0965"/>
</svg>
