<svg width="48" height="48" viewBox="0 0 48 48" fill="none" xmlns="http://www.w3.org/2000/svg">
<path fill-rule="evenodd" clip-rule="evenodd" d="M24.0014 0C10.7476 0 0 10.7448 0 24.0014C0 33.8261 5.91004 42.2706 14.3687 45.982C14.3009 44.3083 14.3574 42.2932 14.7836 40.4699C15.2464 38.5225 17.8712 27.3939 17.8712 27.3939C17.8712 27.3939 17.1064 25.8614 17.1064 23.595C17.1064 20.0388 19.1695 17.383 21.7351 17.383C23.9167 17.383 24.9723 19.0228 24.9723 20.9871C24.9723 23.1801 23.5724 26.4625 22.8527 29.5022C22.2515 32.0508 24.1284 34.1252 26.6403 34.1252C31.1872 34.1252 34.2494 28.2858 34.2494 21.3653C34.2494 16.1073 30.7074 12.17 24.2639 12.17C16.985 12.17 12.4495 17.5975 12.4495 23.6599C12.4495 25.7541 13.0647 27.2274 14.03 28.3676C14.4759 28.8954 14.5352 29.1043 14.3743 29.7082C14.2614 30.1457 13.9961 31.2126 13.886 31.6331C13.7252 32.2399 13.2341 32.46 12.6865 32.2343C9.33075 30.8654 7.76998 27.1935 7.76998 23.0644C7.76998 16.2484 13.5191 8.06915 24.9215 8.06915C34.0857 8.06915 40.1171 14.7045 40.1171 21.8197C40.1171 31.2351 34.8845 38.2685 27.1653 38.2685C24.5772 38.2685 22.1386 36.8686 21.3032 35.2796C21.3032 35.2796 19.909 40.8086 19.6155 41.8755C19.1074 43.7241 18.1111 45.5756 17.1995 47.015C19.3586 47.6529 21.6391 48 24.0014 48C37.2552 48 48 37.2552 48 24.0014C48 10.7448 37.2552 0 24.0014 0Z" fill="#1A2149"/>
</svg>
