<svg width="16" height="18" viewBox="0 0 16 18" fill="none" xmlns="http://www.w3.org/2000/svg">
<path fill-rule="evenodd" clip-rule="evenodd" d="M15.4521 2.668C15.2161 1.732 13.9241 0.16 7.88809 0.16C5.04409 0.16 2.98009 0.472 1.75209 1.088C0.396086 1.768 0.288086 2.688 0.288086 2.96V8.28C0.294433 11.5968 2.08559 14.6533 4.97609 16.28L7.30009 17.588C7.66522 17.7932 8.11095 17.7932 8.47609 17.588L10.8001 16.28C13.6906 14.6533 15.4817 11.5968 15.4881 8.28V2.96C15.4881 2.86156 15.476 2.76349 15.4521 2.668ZM14.2881 8.268C14.2883 11.1576 12.7302 13.8227 10.2121 15.24L7.88809 16.56L5.56409 15.252C3.046 13.8347 1.48792 11.1696 1.48809 8.28V2.96C1.48809 2.96 1.48809 1.36 7.88809 1.36C13.8881 1.36 14.2881 2.96 14.2881 2.96V8.268Z" fill="#AC0965"/>
<path fill-rule="evenodd" clip-rule="evenodd" d="M7.48824 9.712L5.93042 8.15418C5.69401 7.9339 5.32561 7.9404 5.09712 8.16888C4.86863 8.39737 4.86213 8.76577 5.08242 9.00218L7.06424 10.984C7.29849 11.218 7.67798 11.218 7.91224 10.984L12.3122 6.584C12.5325 6.34759 12.526 5.97919 12.2975 5.7507C12.069 5.52221 11.7006 5.51571 11.4642 5.736L7.48824 9.712Z" fill="#AC0965"/>
</svg>
