<svg width="62" height="60" viewBox="0 0 62 60" fill="none" xmlns="http://www.w3.org/2000/svg">
<g id="Twitter">
<path id="Combined Shape" fill-rule="evenodd" clip-rule="evenodd" d="M31 0C14.4315 0 1 13.4147 1 29.9625C1 46.5104 14.4315 59.9251 31 59.9251C47.5685 59.9251 61 46.5104 61 29.9625C61 13.4147 47.5685 0 31 0ZM30.1645 25.3907L30.1015 24.3539C29.9126 21.6668 31.5704 19.2124 34.1935 18.2603C35.1587 17.9217 36.7955 17.8794 37.8657 18.1756C38.2854 18.3026 39.0828 18.7257 39.6494 19.1066L40.6776 19.8048L41.8108 19.4451C42.4403 19.2547 43.2797 18.9373 43.6574 18.7257C44.0141 18.5353 44.3289 18.4295 44.3289 18.493C44.3289 18.8527 43.5525 20.0799 42.902 20.757C42.0206 21.7091 42.2724 21.7937 44.0561 21.159C45.1263 20.7993 45.1473 20.7993 44.9375 21.2013C44.8116 21.4129 44.161 22.1534 43.4686 22.8305C42.2934 23.9942 42.2305 24.1212 42.2305 25.0945C42.2305 26.5967 41.517 29.7282 40.8035 31.4421C39.4815 34.6582 36.6486 37.9801 33.8157 39.6516C29.8287 42.0002 24.5197 42.5927 20.05 41.2173C18.5601 40.7519 16 39.567 16 39.3554C16 39.2919 16.7764 39.2073 17.7207 39.1861C19.6933 39.1438 21.6658 38.5937 23.3445 37.6204L24.4777 36.9433L23.1767 36.499C21.33 35.8642 19.6723 34.4043 19.2526 33.029C19.1267 32.5846 19.1686 32.5635 20.3438 32.5635L21.5609 32.5423L20.5326 32.0557C19.3155 31.4421 18.2034 30.4053 17.6578 29.3474C17.2591 28.5857 16.7554 26.6602 16.9023 26.5121C16.9443 26.4486 17.385 26.5756 17.8886 26.7449C19.3365 27.2738 19.5254 27.1469 18.686 26.2582C17.1122 24.6502 16.6295 22.2592 17.385 19.9953L17.7417 18.9796L19.1267 20.355C21.9596 23.1267 25.2961 24.7771 29.1152 25.2638L30.1645 25.3907Z" fill="white"/>
</g>
</svg>
