<svg width="40" height="40" viewBox="0 0 40 40" fill="none" xmlns="http://www.w3.org/2000/svg">
<mask id="mask0" mask-type="alpha" maskUnits="userSpaceOnUse" x="0" y="0" width="40" height="40">
<rect width="40" height="40" fill="white"/>
</mask>
<g mask="url(#mask0)">
<path d="M14.1251 25.5C13.7501 25 13.3751 24.125 12.6251 23C12.2501 22.375 11.1251 21.125 10.7501 20.625C10.5001 20.125 10.5001 19.875 10.6251 19.375C10.7501 18.625 11.5001 18 12.3751 18C13.0001 18 13.6251 18.5 14.1251 18.875C14.3751 19.125 14.7501 19.625 15.0001 19.875C15.2501 20.125 15.2501 20.25 15.5001 20.5C15.7501 20.875 15.8751 21.125 15.7501 20.625C15.6251 20 15.5001 19 15.2501 18C15.1251 17.25 15.0001 17.125 14.8751 16.625C14.7501 16 14.6251 15.625 14.5001 15C14.3751 14.625 14.2501 13.625 14.1251 13.125C14.0001 12.5 14.0001 11.375 14.5001 10.875C14.8751 10.5 15.6251 10.375 16.1251 10.625C16.7501 11 17.1251 11.875 17.2501 12.25C17.5001 12.875 17.7501 13.75 17.8751 14.75C18.1251 16 18.5001 17.875 18.5001 18.25C18.5001 17.75 18.3751 16.875 18.5001 16.375C18.6251 16 18.8751 15.5 19.3751 15.375C19.7501 15.25 20.1251 15.25 20.5001 15.25C20.8751 15.375 21.2501 15.625 21.5001 15.875C22.0001 16.625 22.0001 18.25 22.0001 18.125C22.1251 17.625 22.1251 16.625 22.3751 16.125C22.5001 15.875 23.0001 15.625 23.2501 15.5C23.6251 15.375 24.1251 15.375 24.5001 15.5C24.7501 15.5 25.2501 15.875 25.3751 16.125C25.6251 16.5 25.7501 17.75 25.8751 18.25C25.8751 18.375 26.0001 17.75 26.2501 17.375C26.7501 16.625 28.5001 16.375 28.6251 18.125C28.6251 19 28.6251 18.875 28.6251 19.5C28.6251 20.125 28.6251 20.5 28.6251 21C28.6251 21.5 28.5001 22.625 28.3751 23.125C28.2501 23.5 27.8751 24.375 27.5001 24.875C27.5001 24.875 26.1251 26.375 26.0001 27.125C25.8751 27.875 25.8751 27.875 25.8751 28.375C25.8751 28.875 26.0001 29.5 26.0001 29.5C26.0001 29.5 25.0001 29.625 24.5001 29.5C24.0001 29.375 23.3751 28.5 23.2501 28.125C23.0001 27.75 22.6251 27.75 22.3751 28.125C22.1251 28.625 21.5001 29.5 21.0001 29.5C20.1251 29.625 18.3751 29.5 17.1251 29.5C17.1251 29.5 17.3751 28.25 16.8751 27.75C16.5001 27.375 15.8751 26.75 15.5001 26.375L14.1251 25.5Z" fill="white"/>
</g>
<mask id="mask1" mask-type="alpha" maskUnits="userSpaceOnUse" x="0" y="0" width="40" height="40">
<rect width="40" height="40" fill="white"/>
</mask>
<g mask="url(#mask1)">
<path fill-rule="evenodd" clip-rule="evenodd" d="M14.1251 25.5C13.7501 25 13.3751 24.125 12.6251 23C12.2501 22.375 11.1251 21.125 10.7501 20.625C10.5001 20.125 10.5001 19.875 10.6251 19.375C10.7501 18.625 11.5001 18 12.3751 18C13.0001 18 13.6251 18.5 14.1251 18.875C14.3751 19.125 14.7501 19.625 15.0001 19.875C15.2501 20.125 15.2501 20.25 15.5001 20.5C15.7501 20.875 15.8751 21.125 15.7501 20.625C15.6251 20 15.5001 19 15.2501 18C15.1251 17.25 15.0001 17.125 14.8751 16.625C14.7501 16 14.6251 15.625 14.5001 15C14.3751 14.625 14.2501 13.625 14.1251 13.125C14.0001 12.5 14.0001 11.375 14.5001 10.875C14.8751 10.5 15.6251 10.375 16.1251 10.625C16.7501 11 17.1251 11.875 17.2501 12.25C17.5001 12.875 17.7501 13.75 17.8751 14.75C18.1251 16 18.5001 17.875 18.5001 18.25C18.5001 17.75 18.3751 16.875 18.5001 16.375C18.6251 16 18.8751 15.5 19.3751 15.375C19.7501 15.25 20.1251 15.25 20.5001 15.25C20.8751 15.375 21.2501 15.625 21.5001 15.875C22.0001 16.625 22.0001 18.25 22.0001 18.125C22.1251 17.625 22.1251 16.625 22.3751 16.125C22.5001 15.875 23.0001 15.625 23.2501 15.5C23.6251 15.375 24.1251 15.375 24.5001 15.5C24.7501 15.5 25.2501 15.875 25.3751 16.125C25.6251 16.5 25.7501 17.75 25.8751 18.25C25.8751 18.375 26.0001 17.75 26.2501 17.375C26.7501 16.625 28.5001 16.375 28.6251 18.125C28.6251 19 28.6251 18.875 28.6251 19.5C28.6251 20.125 28.6251 20.5 28.6251 21C28.6251 21.5 28.5001 22.625 28.3751 23.125C28.2501 23.5 27.8751 24.375 27.5001 24.875C27.5001 24.875 26.1251 26.375 26.0001 27.125C25.8751 27.875 25.8751 27.875 25.8751 28.375C25.8751 28.875 26.0001 29.5 26.0001 29.5C26.0001 29.5 25.0001 29.625 24.5001 29.5C24.0001 29.375 23.3751 28.5 23.2501 28.125C23.0001 27.75 22.6251 27.75 22.3751 28.125C22.1251 28.625 21.5001 29.5 21.0001 29.5C20.1251 29.625 18.3751 29.5 17.1251 29.5C17.1251 29.5 17.3751 28.25 16.8751 27.75C16.5001 27.375 15.8751 26.75 15.5001 26.375L14.1251 25.5Z" stroke="black" stroke-width="0.75" stroke-linecap="round" stroke-linejoin="round"/>
</g>
<mask id="mask2" mask-type="alpha" maskUnits="userSpaceOnUse" x="0" y="0" width="40" height="40">
<rect width="40" height="40" fill="white"/>
</mask>
<g mask="url(#mask2)">
<path d="M24.5 25.875V21.625" stroke="black" stroke-width="0.75" stroke-linecap="round"/>
</g>
<mask id="mask3" mask-type="alpha" maskUnits="userSpaceOnUse" x="0" y="0" width="40" height="40">
<rect width="40" height="40" fill="white"/>
</mask>
<g mask="url(#mask3)">
<path d="M22 25.875L21.875 21.625" stroke="black" stroke-width="0.75" stroke-linecap="round"/>
</g>
<mask id="mask4" mask-type="alpha" maskUnits="userSpaceOnUse" x="0" y="0" width="40" height="40">
<rect width="40" height="40" fill="white"/>
</mask>
<g mask="url(#mask4)">
<path d="M19.5 21.625V25.875" stroke="black" stroke-width="0.75" stroke-linecap="round"/>
</g>
</svg>
